<svg width="82" height="69" xmlns="http://www.w3.org/2000/svg" xmlns:xlink="http://www.w3.org/1999/xlink" xml:space="preserve" overflow="hidden"><defs><clipPath id="clip0"><rect x="627" y="522" width="82" height="69"/></clipPath></defs><g clip-path="url(#clip0)" transform="translate(-627 -522)"><path d="M77.3339 52.0747 80.2868 53.5511C81.1646 54.0699 81.5637 55.1473 81.2045 56.105 80.4065 58.2199 78.8901 60.1752 77.4536 61.891 76.8151 62.6891 75.6579 62.8487 74.78 62.3699L72.2262 60.8934C70.8295 62.0906 69.1935 63.0482 67.3978 63.6867L67.3978 66.6396C67.3978 67.6771 66.6795 68.555 65.6819 68.7146 63.5271 69.0737 61.2526 69.1136 59.0179 68.7146 58.0203 68.555 57.2622 67.6771 57.2622 66.6396L57.2622 63.6867C55.4665 63.0482 53.8304 62.0906 52.4338 60.8934L49.8799 62.3699C49.0021 62.8886 47.8448 62.6891 47.2064 61.891 45.7698 60.1752 44.2934 58.2199 43.4953 56.105 43.1362 55.1473 43.5352 54.0699 44.4131 53.5511L47.3261 52.0747C46.967 50.2391 46.967 48.3237 47.3261 46.4881L44.4131 45.0117C43.5352 44.4929 43.1362 43.4155 43.4953 42.4578 44.2934 40.3429 45.7698 38.3876 47.2064 36.6717 47.8448 35.8737 49.0021 35.714 49.8799 36.1929L52.4338 37.6693C53.8304 36.4722 55.4665 35.5145 57.2622 34.8761L57.2622 31.9232C57.2622 30.9256 57.9804 30.0477 58.978 29.8482 61.1329 29.489 63.4074 29.4491 65.6819 29.8482 66.6795 30.0078 67.4377 30.8857 67.4377 31.9232L67.4377 34.8761C69.2334 35.5145 70.8694 36.4722 72.2661 37.6693L74.8199 36.1929C75.6978 35.6741 76.855 35.8737 77.4935 36.6717 78.93 38.3876 80.4065 40.3429 81.2045 42.4578 81.5637 43.4155 81.2045 44.4929 80.3267 45.0117L77.3738 46.4881C77.693 48.3636 77.693 50.2391 77.3339 52.0747ZM66.9987 53.9501C72.2262 47.1665 64.4848 39.4251 57.7011 44.6525 52.4737 51.4362 60.2151 59.1377 66.9987 53.9501Z" fill="#FFFFFF" transform="matrix(1.00781 0 0 1 627 522.003)"/><path d="M40.2631 57.3021C39.6645 55.666 39.904 53.9102 40.7419 52.5136L7.1029 52.5136C6.66396 52.5136 6.30482 52.1545 6.30482 51.7155L6.30482 20.9895 60.9333 20.9895 60.9333 26.2169C61.4122 26.177 61.891 26.177 62.3699 26.177 63.6867 26.177 64.9636 26.2967 66.2406 26.4962L66.2406 26.4962 66.2406 26.4962C66.5997 26.5361 66.9189 26.6558 67.2382 26.7756L67.2382 6.30482C67.2382 2.83318 64.405 0 60.9333 0L6.30482 0C2.83318 0 0 2.83318 0 6.30482L0 52.5136C0 55.9852 2.83318 58.8184 6.30482 58.8184L40.9415 58.8184C40.702 58.3396 40.4626 57.8208 40.2631 57.3021ZM37.8289 6.30482C40.1434 6.30482 42.0189 8.18031 42.0189 10.4947 42.0189 12.8092 40.1434 14.6847 37.8289 14.6847 35.5145 14.6847 33.639 12.8092 33.639 10.4947 33.5991 8.18031 35.4746 6.30482 37.8289 6.30482ZM25.2193 6.30482C27.5337 6.30482 29.4092 8.18031 29.4092 10.4947 29.4092 12.8092 27.5337 14.6847 25.2193 14.6847 22.9049 14.6847 21.0294 12.8092 21.0294 10.4947 20.9895 8.18031 22.865 6.30482 25.2193 6.30482ZM12.6096 6.30482C14.9241 6.30482 16.7996 8.18031 16.7996 10.4947 16.7996 12.8092 14.9241 14.6847 12.6096 14.6847 10.2952 14.6847 8.41973 12.8092 8.41973 10.4947 8.41973 8.18031 10.2952 6.30482 12.6096 6.30482Z" fill="#FFFFFF" transform="matrix(1.00781 0 0 1 627 522.003)"/><path d="M64.804 29.7284C65.0834 29.7683 65.3627 29.8083 65.642 29.8482 65.7218 29.8482 65.8415 29.8881 65.9213 29.928 65.8415 29.8881 65.7218 29.8881 65.642 29.8482 65.3627 29.8083 65.0834 29.7683 64.804 29.7284Z" fill="#FFFFFF" transform="matrix(1.00781 0 0 1 627 522.003)"/><path d="M36.153 28.4515 36.8713 27.1746C37.1506 26.6957 37.7092 26.4962 38.1881 26.6957 39.2256 27.0948 40.1833 27.6534 41.0213 28.3318 41.4203 28.651 41.54 29.2496 41.2607 29.7284L40.5424 31.0054C41.141 31.7236 41.6198 32.5217 41.9391 33.3996L43.3756 33.3996C43.8943 33.3996 44.3732 33.7587 44.453 34.3174 44.6126 35.3549 44.6525 36.4722 44.453 37.5895 44.3732 38.1083 43.8943 38.5073 43.3756 38.5073L41.9391 38.5073C41.6198 39.3852 41.141 40.2232 40.5424 40.9016L41.2607 42.1785C41.54 42.6174 41.4203 43.216 41.0213 43.5751 40.1833 44.2535 39.2256 44.8121 38.1881 45.2112 37.6693 45.4107 37.1107 45.2112 36.8713 44.7323L36.153 43.4554C35.2352 43.615 34.2775 43.615 33.3597 43.4554L32.6414 44.7323C32.3621 45.2112 31.8034 45.4107 31.3246 45.2112 30.2871 44.8121 29.3294 44.2535 28.4914 43.5751 28.0924 43.2559 27.9727 42.6573 28.252 42.1785L28.9703 40.9016C28.3717 40.1833 27.8929 39.3852 27.5736 38.5073L26.1371 38.5073C25.6183 38.5073 25.1395 38.1482 25.0597 37.5895 24.9001 36.552 24.8602 35.4347 25.0597 34.3174 25.1395 33.7986 25.6183 33.3996 26.1371 33.3996L27.5736 33.3996C27.8929 32.5217 28.3717 31.6837 28.9703 31.0054L28.252 29.7284C27.9727 29.2895 28.0924 28.6909 28.4914 28.3318 29.3294 27.6534 30.2871 27.0948 31.3246 26.6957 31.8434 26.4962 32.402 26.6957 32.6414 27.1746L33.3597 28.4515C34.2775 28.2919 35.2352 28.2919 36.153 28.4515ZM37.0708 33.639C33.6789 31.0453 29.8083 34.916 32.4419 38.2679 35.8338 40.8616 39.7044 37.0309 37.0708 33.639L37.0708 33.639Z" fill="#FFFFFF" transform="matrix(1.00781 0 0 1 627 522.003)"/></g></svg>